<mxfile host="65bd71144e">
    <diagram id="pl-FxzCDvtGJDBXuIbYB" name="Page-1">
        <mxGraphModel dx="390" dy="472" grid="1" gridSize="10" guides="1" tooltips="1" connect="1" arrows="1" fold="1" page="1" pageScale="1" pageWidth="1654" pageHeight="1169" math="0" shadow="0">
            <root>
                <mxCell id="0"/>
                <mxCell id="1" style="locked=1;" parent="0"/>
                <mxCell id="34" value="Section" style="locked=1;" parent="0"/>
                <mxCell id="35" value="PCS Piping" style="swimlane;childLayout=stackLayout;resizeParent=1;resizeParentMax=0;startSize=40;html=1;" parent="34" vertex="1">
                    <mxGeometry x="40" y="40" width="940" height="1080" as="geometry"/>
                </mxCell>
                <mxCell id="36" value="Material Center" style="swimlane;startSize=40;html=1;" parent="35" vertex="1">
                    <mxGeometry y="40" width="320" height="1040" as="geometry"/>
                </mxCell>
                <mxCell id="37" value="Engineering" style="swimlane;startSize=40;html=1;" parent="35" vertex="1">
                    <mxGeometry x="320" y="40" width="320" height="1040" as="geometry"/>
                </mxCell>
                <mxCell id="38" value="Production" style="swimlane;startSize=40;html=1;" parent="35" vertex="1">
                    <mxGeometry x="640" y="40" width="300" height="1040" as="geometry"/>
                </mxCell>
                <mxCell id="39" value="Material" style="locked=1;" parent="0"/>
                <mxCell id="42" style="edgeStyle=none;html=1;exitX=0.5;exitY=1;exitDx=0;exitDy=0;entryX=0.5;entryY=0;entryDx=0;entryDy=0;" parent="39" source="40" target="41" edge="1">
                    <mxGeometry relative="1" as="geometry"/>
                </mxCell>
                <mxCell id="40" value="Packing List" style="rounded=1;whiteSpace=wrap;html=1;" parent="39" vertex="1">
                    <mxGeometry x="70" y="150" width="120" height="60" as="geometry"/>
                </mxCell>
                <mxCell id="44" style="edgeStyle=none;html=1;exitX=0.5;exitY=1;exitDx=0;exitDy=0;entryX=0.5;entryY=0;entryDx=0;entryDy=0;" parent="39" source="41" target="43" edge="1">
                    <mxGeometry relative="1" as="geometry"/>
                </mxCell>
                <mxCell id="41" value="Material Receive" style="rounded=1;whiteSpace=wrap;html=1;" parent="39" vertex="1">
                    <mxGeometry x="140" y="270" width="120" height="60" as="geometry"/>
                </mxCell>
                <mxCell id="43" value="Material Stock" style="rounded=1;whiteSpace=wrap;html=1;" parent="39" vertex="1">
                    <mxGeometry x="140" y="380" width="120" height="60" as="geometry"/>
                </mxCell>
                <mxCell id="45" value="Engineering" style="locked=1;" parent="0"/>
                <mxCell id="57" style="edgeStyle=none;sketch=0;html=1;exitX=0.5;exitY=1;exitDx=0;exitDy=0;entryX=0.5;entryY=0;entryDx=0;entryDy=0;shadow=0;" parent="45" source="52" target="56" edge="1">
                    <mxGeometry relative="1" as="geometry"/>
                </mxCell>
                <mxCell id="52" value="Drawing" style="rounded=1;whiteSpace=wrap;html=1;" parent="45" vertex="1">
                    <mxGeometry x="460" y="160" width="120" height="60" as="geometry"/>
                </mxCell>
                <mxCell id="66" value="" style="edgeStyle=none;html=1;" parent="45" source="53" target="65" edge="1">
                    <mxGeometry relative="1" as="geometry"/>
                </mxCell>
                <mxCell id="53" value="BOM Mat" style="rounded=1;whiteSpace=wrap;html=1;" parent="45" vertex="1">
                    <mxGeometry x="390" y="380" width="120" height="60" as="geometry"/>
                </mxCell>
                <mxCell id="54" value="BOM Weld" style="rounded=1;whiteSpace=wrap;html=1;" parent="45" vertex="1">
                    <mxGeometry x="530" y="380" width="120" height="60" as="geometry"/>
                </mxCell>
                <mxCell id="58" style="edgeStyle=none;sketch=0;html=1;exitX=0.5;exitY=1;exitDx=0;exitDy=0;entryX=0.5;entryY=0;entryDx=0;entryDy=0;shadow=0;" parent="45" source="56" target="53" edge="1">
                    <mxGeometry relative="1" as="geometry"/>
                </mxCell>
                <mxCell id="59" style="edgeStyle=none;sketch=0;html=1;exitX=0.5;exitY=1;exitDx=0;exitDy=0;entryX=0.5;entryY=0;entryDx=0;entryDy=0;shadow=0;" parent="45" source="56" target="54" edge="1">
                    <mxGeometry relative="1" as="geometry"/>
                </mxCell>
                <mxCell id="56" value="Spool" style="rounded=1;whiteSpace=wrap;html=1;" parent="45" vertex="1">
                    <mxGeometry x="460" y="270" width="120" height="60" as="geometry"/>
                </mxCell>
                <mxCell id="65" value="Matching&lt;br&gt;Material" style="rounded=1;whiteSpace=wrap;html=1;fillColor=rgb(24, 20, 29);strokeColor=rgb(240, 240, 240);fontColor=rgb(240, 240, 240);" parent="45" vertex="1">
                    <mxGeometry x="390" y="520" width="120" height="60" as="geometry"/>
                </mxCell>
                <mxCell id="67" style="edgeStyle=none;html=1;exitX=1;exitY=0.5;exitDx=0;exitDy=0;entryX=0;entryY=0.5;entryDx=0;entryDy=0;" parent="45" source="43" target="65" edge="1">
                    <mxGeometry relative="1" as="geometry">
                        <Array as="points">
                            <mxPoint x="320" y="410"/>
                            <mxPoint x="320" y="550"/>
                        </Array>
                    </mxGeometry>
                </mxCell>
                <mxCell id="68" value="Production" style="locked=1;" parent="0"/>
                <mxCell id="71" value="" style="edgeStyle=none;html=1;" edge="1" parent="68" source="69" target="70">
                    <mxGeometry relative="1" as="geometry"/>
                </mxCell>
                <mxCell id="69" value="Issue to Group Fab" style="rounded=1;whiteSpace=wrap;html=1;" vertex="1" parent="68">
                    <mxGeometry x="767" y="160" width="120" height="60" as="geometry"/>
                </mxCell>
                <mxCell id="70" value="Cutting Record" style="whiteSpace=wrap;html=1;fillColor=rgb(24, 20, 29);strokeColor=rgb(240, 240, 240);fontColor=rgb(240, 240, 240);rounded=1;" vertex="1" parent="68">
                    <mxGeometry x="767" y="300" width="120" height="60" as="geometry"/>
                </mxCell>
            </root>
        </mxGraphModel>
    </diagram>
</mxfile>